<svg width="651" height="499" viewBox="0 0 651 499" fill="none" xmlns="http://www.w3.org/2000/svg">
<path d="M7.67015 65.1819C6.70605 64.2178 5.74195 63.2537 6.69144 60.8288C7.64093 58.404 10.5332 54.5476 14.9155 52.0789C33.569 41.5708 53.3626 45.7246 89.823 46.1775C107.606 46.3983 118.629 63.1953 132.74 71.4631C161.3 88.1973 164.438 107.953 175.599 120.632C195.262 142.973 200.431 160.54 215.536 185.358C225.803 202.229 228.712 227.735 235.519 241.875C246.399 264.476 251.09 289.086 255.502 301.78C259.687 313.823 262.776 331.916 265.727 351.899C274.734 412.899 272.534 499.552 275.938 491.781C282.44 476.934 282.292 456.781 285.199 440.172C288.933 418.838 290.063 405.129 295.906 380.311C299.92 363.264 305.664 345.705 314.385 320.916C322.784 297.041 334.821 276.582 345.061 260.499C356.973 241.79 368.886 224.054 396.129 189.96C412.576 169.376 423.401 151.951 439.513 131.471C458.036 107.927 512.858 73.1284 538.83 59.3681C553.874 51.3974 565.62 45.7246 595.741 36.4927C603.6 34.0386 609.384 32.1104 616.703 31.1171C624.021 30.1238 632.698 30.1238 644.559 27.2023" stroke="black" stroke-width="12" stroke-linecap="round"/>
<path d="M372.859 155.749C375.751 148.007 387.408 134.363 394.259 123.656C402.465 110.83 413.702 102.227 425.402 89.0945C436.646 76.4749 448.76 67.1685 460.46 59.3681C473.748 50.5095 486.739 37.9534 503.757 28.7069C510.082 25.3033 518.759 20.4828 525.157 16.5534C531.555 12.6239 535.412 9.73165 539.385 6.75171" stroke="black" stroke-width="12" stroke-linecap="round"/>
<path d="M326.115 465.429C326.115 455.758 329.971 428.559 335.347 412.885C340.788 397.02 355.271 378.835 368.418 366.156C389.59 345.737 401.022 332.091 416.141 320.361C422.466 317.425 428.338 312.575 435.613 305.286C439.995 301.853 445.78 298.961 457.583 293.06" stroke="black" stroke-width="12" stroke-linecap="round"/>
<path d="M355.33 333.961C358.222 326.219 371.807 306.791 399.05 275.165C414.695 254.145 434.094 238.603 451.199 226.873C454.632 224.901 457.524 223.937 460.504 222.943" stroke="black" stroke-width="12" stroke-linecap="round"/>
</svg>
