<svg width="325" height="338" viewBox="0 0 325 338" fill="none" xmlns="http://www.w3.org/2000/svg">
<path d="M42.5509 177.165C50.2929 177.165 67.7927 173.309 86.7825 167.451C111.347 159.874 134.929 136.381 147.214 121.7C157.682 109.191 168.117 83.7938 177.393 57.5003C189.72 22.5568 187.633 10.6685 189.108 8.2144C195.976 -3.20973 177.934 32.9596 174.515 49.0279C167.919 80.0356 183.718 105.939 191.519 124.038C197.4 137.684 220.646 144.97 248.415 148.914C280.068 153.41 314.222 152.829 317.158 150.404C326.714 142.513 277.44 142.107 256.362 147.439C241.776 151.128 229.586 168.342 216.921 179.546C197.344 196.866 191.606 214.093 176.02 238.911C167.178 252.99 163.326 275.386 159.426 292.024C157.387 300.723 156.49 315.353 157.454 325.14C160.717 358.264 158.476 259.026 150.194 247.807C142.409 237.262 131.248 224.961 115.647 212.749C102.398 202.379 81.6407 192.825 65.0027 187.887C45.7584 182.176 20.289 181.08 7.50739 178.144C-1.4517 176.086 39.4541 183.008 57.1146 179.619C62.943 176.23 71.7076 171.351 81.9182 166.487C86.3443 164.515 89.2366 163.551 95.1381 159.636" stroke="black" stroke-width="12" stroke-linecap="round"/>
</svg>
