<svg width="408" height="438" viewBox="0 0 408 438" fill="none" xmlns="http://www.w3.org/2000/svg">
<path d="M65.2544 374.922C65.2544 372.993 68.1467 364.287 73.011 349.227C77.4365 335.525 91.4019 285.757 120.062 211.843C140.972 157.917 165.521 137.344 176.184 129.573C190.886 118.859 210.278 115.9 224.856 114.907C231.769 114.436 237.507 119.698 242.415 125.541C252.797 137.902 255.153 161.505 254.188 186.309C253.161 212.751 233.767 222.945 215.785 235.624C211.82 238.42 208.467 237.611 206.495 236.164C189.057 223.377 196.722 164.807 215.099 115.141C233.629 65.0599 266.78 36.0848 278.437 25.3921C300.874 10.7261 355.01 4.88312 387.059 7.27876C390.477 8.73951 394.333 10.6677 401.228 18.4974" stroke="#FED91F" stroke-width="12" stroke-linecap="round"/>
<path d="M6.8241 328.177C12.6087 328.177 19.445 328.177 28.6624 334.926C73.0641 367.436 62.3328 421.607 62.8148 428.926C63.6528 441.648 86.5813 400.28 101.233 389.573C105.133 386.637 109.953 383.744 114.847 380.326C119.74 376.908 124.561 373.052 132.449 369.078" stroke="#FED91F" stroke-width="12" stroke-linecap="round"/>
</svg>
