<svg width="244" height="255" viewBox="0 0 244 255" fill="none" xmlns="http://www.w3.org/2000/svg">
<circle cx="60" cy="129" r="60" fill="#FED91F"/>
<path d="M120.34 88.0435C120.147 76.9995 129.178 67.5747 139.677 71.0062C140.804 71.3747 141.922 71.7769 143.028 72.2126C150.359 75.1004 157.05 79.4039 162.717 84.8774C168.385 90.3509 172.92 96.8872 176.061 104.113C179.203 111.339 180.891 119.113 181.028 126.991C181.166 134.869 179.75 142.697 176.862 150.028C173.975 157.359 169.671 164.049 164.198 169.717C158.724 175.385 152.188 179.919 144.962 183.061C143.872 183.535 142.769 183.976 141.655 184.384C131.282 188.179 121.928 179.075 121.735 168.031L121.038 128.037L120.34 88.0435Z" fill="black"/>
<path d="M181.34 90.0435C181.147 78.9995 190.178 69.5747 200.677 73.0062C201.804 73.3747 202.922 73.7769 204.028 74.2126C211.359 77.1004 218.05 81.4039 223.717 86.8774C229.385 92.3509 233.92 98.8872 237.061 106.113C240.203 113.339 241.891 121.113 242.028 128.991C242.166 136.869 240.75 144.697 237.862 152.028C234.975 159.359 230.671 166.049 225.198 171.717C219.724 177.385 213.188 181.919 205.962 185.061C204.872 185.535 203.769 185.976 202.655 186.384C192.282 190.179 182.928 181.075 182.735 170.031L182.038 130.037L181.34 90.0435Z" fill="black"/>
<line x1="118.5" x2="118.5" y2="255" stroke="black" stroke-width="5"/>
</svg>
