<svg width="244" height="125" viewBox="0 0 244 125" fill="none" xmlns="http://www.w3.org/2000/svg">
<circle cx="60" cy="62" r="60" fill="#FED91F"/>
<path d="M120.34 21.0435C120.147 9.99952 129.178 0.574745 139.677 4.00624C140.804 4.37466 141.922 4.77686 143.028 5.21259C150.359 8.10043 157.05 12.4039 162.717 17.8774C168.385 23.3509 172.92 29.8872 176.061 37.113C179.203 44.3388 180.891 52.1127 181.028 59.9908C181.166 67.8689 179.75 75.697 176.862 83.028C173.975 90.359 169.671 97.0495 164.198 102.717C158.724 108.385 152.188 112.919 144.962 116.061C143.872 116.535 142.769 116.976 141.655 117.384C131.282 121.179 121.928 112.075 121.735 101.031L121.038 61.0375L120.34 21.0435Z" fill="black"/>
<path d="M181.34 23.0435C181.147 11.9995 190.178 2.57475 200.677 6.00624C201.804 6.37466 202.922 6.77686 204.028 7.21259C211.359 10.1004 218.05 14.4039 223.717 19.8774C229.385 25.3509 233.92 31.8872 237.061 39.113C240.203 46.3388 241.891 54.1127 242.028 61.9908C242.166 69.8689 240.75 77.697 237.862 85.028C234.975 92.359 230.671 99.0495 225.198 104.717C219.724 110.385 213.188 114.919 205.962 118.061C204.872 118.535 203.769 118.976 202.655 119.384C192.282 123.179 182.928 114.075 182.735 103.031L182.038 63.0375L181.34 23.0435Z" fill="black"/>
</svg>
