<svg width="1971" height="1108" viewBox="0 0 1971 1108" fill="none" xmlns="http://www.w3.org/2000/svg">
<circle cx="1631" cy="554" r="340" fill="#F8E270"/>
<path d="M1579.87 657.774L1575.13 452.669L1738.77 551.49L1579.87 657.774Z" fill="black" stroke="black"/>
<mask id="path-3-inside-1_24_1477" fill="white">
<path d="M568.533 0.499818C417.89 0.490801 273.414 58.7972 166.887 162.592C60.3598 266.387 0.508725 407.168 0.499927 553.966C0.491129 700.763 60.3254 841.552 166.84 945.359C273.354 1049.17 417.824 1107.49 568.467 1107.5L568.5 554L568.533 0.499818Z"/>
</mask>
<path d="M568.533 0.499818C417.89 0.490801 273.414 58.7972 166.887 162.592C60.3598 266.387 0.508725 407.168 0.499927 553.966C0.491129 700.763 60.3254 841.552 166.84 945.359C273.354 1049.17 417.824 1107.49 568.467 1107.5L568.5 554L568.533 0.499818Z" stroke="black" stroke-width="28" mask="url(#path-3-inside-1_24_1477)"/>
<mask id="path-4-inside-2_24_1477" fill="white">
<path d="M1136.07 0.0339977C985.423 0.024981 840.947 58.3314 734.42 162.126C627.893 265.921 568.042 406.703 568.033 553.5C568.024 700.297 627.859 841.086 734.373 944.894C840.887 1048.7 985.357 1107.02 1136 1107.03L1136.03 553.534L1136.07 0.0339977Z"/>
</mask>
<path d="M1136.07 0.0339977C985.423 0.024981 840.947 58.3314 734.42 162.126C627.893 265.921 568.042 406.703 568.033 553.5C568.024 700.297 627.859 841.086 734.373 944.894C840.887 1048.7 985.357 1107.02 1136 1107.03L1136.03 553.534L1136.07 0.0339977Z" stroke="black" stroke-width="28" mask="url(#path-4-inside-2_24_1477)"/>
</svg>
