<svg width="7238" height="3698" viewBox="0 0 7238 3698" fill="none" xmlns="http://www.w3.org/2000/svg">
<path d="M139.58 3689.51C137.677 3678.04 130.011 3647.43 117.531 3606.07C107.496 3572.81 97.3842 3526.38 92.5133 3437.17C90.0989 3392.96 68.5621 3340.07 44.5534 3252.71C29.7027 3198.67 30.0558 3159.41 19.5358 3109.41C11.481 3071.12 8.95809 3040.21 8.90044 2902.32C8.84995 2781.53 45.3892 2728.93 58.8203 2694.31C75.2637 2651.93 110.642 2592.54 143.269 2545.47C201.649 2461.26 283.575 2413.73 317.124 2395.48C406.747 2346.75 498.588 2352.17 573.438 2347.38C727.09 2337.56 773.55 2361.73 801.421 2364.65C829.935 2367.62 860.016 2382.83 883.103 2393.44C906.963 2404.4 929.189 2413.61 962.796 2422.26C1022.09 2437.52 1107.89 2436.67 1159.68 2427.16C1191.27 2421.36 1205.88 2386.87 1242.37 2354.21C1268.83 2330.53 1284.74 2300.4 1296.27 2275.41C1312.44 2240.35 1307.8 2202.41 1308.8 2160.18C1309.61 2126.36 1284.85 2089.08 1266.61 2057.37C1234.62 2001.78 1217.64 1969.98 1190.72 1938.19C1171.75 1915.79 1121.84 1858.85 1062.17 1797.14C995.687 1728.37 944.753 1677.79 925.615 1660.58C869.898 1610.48 837.305 1551.26 810.241 1511.63C791.814 1484.64 777.585 1447.27 763.145 1409.83C752.399 1381.96 733.43 1328.41 725.648 1278.23C721.737 1253.01 716.021 1209.2 717.924 1160.23C719.632 1116.25 767.786 1086.07 795.657 1062.92C816.196 1045.87 865.55 1024.62 1038.14 969.858C1078.36 957.096 1101.78 955.332 1159.19 953.372C1307.84 948.298 1407.69 955.217 1422.05 961.932C1468.25 983.549 1517.16 999.372 1568.87 1021.42C1672.22 1065.49 1699.66 1091.6 1749.58 1120.4C1780.98 1138.5 1820.6 1162.62 1858.21 1192.45C1889.02 1216.88 1914.9 1224.18 1942.78 1238.62C1976.08 1255.88 2031.92 1304.77 2102.97 1359.45C2174.79 1414.72 2249.07 1475.69 2295.15 1520.82C2331.85 1556.76 2402.57 1608.21 2452.87 1648.76C2519.06 1702.13 2581.39 1738.95 2629.63 1768.89C2700.33 1812.77 2750.63 1860.11 2816.89 1902.37C2873.12 1938.22 2927.25 1992.47 2964.06 2024.49C2989.23 2046.39 3038.73 2081.01 3076.43 2101.36C3116.58 2123.02 3136.96 2146.49 3172.47 2177.19C3207.66 2207.61 3244.52 2209.9 3286.78 2225.29C3328.56 2240.51 3371.23 2246.45 3407.89 2253.19C3438.53 2258.83 3530.21 2265.7 3587.56 2255.18C3621.08 2249.03 3653.8 2227.31 3683.63 2209.09C3714.32 2190.35 3751.79 2165.86 3777.79 2150.47C3807.44 2132.92 3830.65 2110.18 3860.39 2076.57C3890.33 2042.75 3913.2 1987.28 3927.72 1958.37C3943.45 1927.07 3944.09 1864.61 3949.83 1821.93C3958.01 1761.07 3951.82 1660.55 3948.91 1607.81C3948.21 1595.17 3946.05 1587.57 3945.07 1524.68C3944.09 1461.79 3944.09 1343.85 3946 1276.44C3948.85 1175.43 3970.96 1153.28 3996.81 1102.47C4023.12 1050.75 4053.5 1036.03 4076.59 1011.07C4101.19 984.474 4202.8 934.58 4260.07 900.541C4282.67 887.11 4314.75 874.63 4350.34 863.073C4425.56 838.649 4526.07 816.986 4607.26 795.946C4665.24 780.922 4758.84 763.492 4812.56 752.742C4877.63 739.722 4944.62 738.129 5032.01 739.08C5087.96 739.689 5117.96 759.227 5145.86 775.511C5168.14 788.517 5217.63 824.365 5293.37 869.413C5404.44 935.472 5442.61 972.395 5484 1007.96C5521.88 1040.51 5559.86 1062.67 5595.46 1093.48C5640.26 1132.26 5680.8 1172.07 5724.2 1226C5752.92 1261.68 5792.28 1310.3 5831.82 1364.38C5852.67 1392.88 5875.06 1427.67 5902.93 1471.02C5927.42 1509.1 5936.62 1533.5 5950.05 1557.54C5981.02 1612.96 6044.07 1700.56 6076.78 1748.6C6130.54 1827.56 6161.32 1881.1 6187.32 1926.38C6206.29 1959.43 6211.41 1990.85 6213.34 2006.19C6214.31 2013.85 6211.47 2021.52 6207.64 2027.34C6192.6 2050.17 6163.51 2056.22 6138.52 2062.96C6131.03 2064.99 6121.31 2063.94 6112.61 2059.19C6076.77 2039.61 6069.32 2002.61 6056.81 1969.96C6032.52 1906.56 6017.44 1879.6 6003 1844.09C5987.77 1806.64 5990.46 1777.8 5980.89 1737.48C5973.82 1707.66 5977.03 1679.75 5974.15 1629.19C5967.7 1516.04 5971.27 1435.68 5968.38 1396.6C5956.14 1230.55 5982.74 1187.98 5996.17 1141.81C6012.72 1084.9 6070.93 1030.38 6101.8 998.594C6142.57 956.608 6215.04 926.51 6250.67 908.266C6306.99 879.422 6345.66 872.67 6383.25 865.926C6454.85 853.076 6524.36 933.773 6583.01 1003C6646.22 1077.61 6636.08 1135.64 6640.86 1191.33C6649.1 1287.19 6628.47 1333.59 6610.22 1360.6C6589.44 1391.37 6544.08 1387.55 6498.88 1379.97C6462.64 1373.89 6434.44 1341.61 6415.24 1318.58C6402.89 1303.76 6395.93 1289.67 6383.51 1228.68C6372.72 1175.7 6361.57 1076.38 6353.76 906.536C6345.95 736.688 6344.05 498.906 6344.97 363.096C6346.08 200.59 6363.13 150.389 6381.35 110.096C6395.01 79.8721 6411.21 63.7499 6428.41 50.3476C6491.44 1.25288 6635.27 6.04811 6697.44 12.7348C6747.89 18.161 6780.07 48.2436 6808.89 58.8502C6841.59 70.8816 6870.34 94.359 6907.81 121.221C6946.33 148.838 6956.92 173.101 6978.97 196.187C6997.12 215.186 7003.04 242.274 7022.21 271.096C7045.23 305.722 7060.68 340.269 7073.16 363.355C7101.27 415.349 7125.82 551.247 7151.9 592.981C7168.13 601.628 7189.34 605.547 7209.49 603.645C7218.22 601.743 7223.93 597.938 7229.81 594.018" stroke="#FED91F" stroke-width="16" stroke-linecap="round"/>
</svg>
